# xmcd CD database file
#
# Track frame offsets:
#	150
#	26900
#	55392
#	86608
#	114121
#	142951
#
# Disc length: 2321 seconds
#
# Revision: 1
# Processed by: cddbd v1.5.2PL0 Copyright (c) Steve Scherf et al.
# Submitted via: CDex 1.70beta3
#
DISCID=48090f06
DTITLE=西直樹 - HAVE YOU MET MISS JONES
DYEAR=1982
DGENRE=Jazz
TTITLE0=ハヴ・ユー・メット・ミス・ジョーンズ
TTITLE1=ラミ
TTITLE2=ウォーキン
TTITLE3=L.A.エアポート
TTITLE4=マイ・フーリッシュ・ハート
TTITLE5=星影のステラ
EXTD=YEAR: 1982
EXTT0=
EXTT1=
EXTT2=
EXTT3=
EXTT4=
EXTT5=
PLAYORDER=
